{
  "accessors": [
    {
      "bufferView": 2,
      "componentType": 5126,
      "count": 306,
      "max": [
        0.06073850020766258,
        0.3610999882221222,
        0.6788539886474609
      ],
      "min": [
        -0.8888520002365112,
        -0.31349998712539673,
        -0.15879400074481964
      ],
      "type": "VEC3"
    },
    {
      "bufferView": 2,
      "byteOffset": 3672,
      "componentType": 5126,
      "count": 306,
      "max": [
        0.9947877526283264,
        0.9451958537101746,
        0.943418025970459
      ],
      "min": [
        -0.9968329071998596,
        -0.9521118998527527,
        -0.9356845617294312
      ],
      "type": "VEC3"
    },
    {
      "bufferView": 3,
      "componentType": 5126,
      "count": 306,
      "max": [
        0.9288945198059082,
        0.9300432205200195,
        0.9137119650840759,
        1.0
      ],
      "min": [
        -0.8936403393745422,
        -0.748752772808075,
        -0.939643383026123,
        1.0
      ],
      "type": "VEC4"
    },
    {
      "bufferView": 1,
      "componentType": 5126,
      "count": 306,
      "max": [
        0.9994999766349792,
        0.9881560206413269
      ],
      "min": [
        0.0005000000237487257,
        0.0005000000237487257
      ],
      "type": "VEC2"
    },
    {
      "bufferView": 0,
      "componentType": 5125,
      "count": 426,
      "type": "SCALAR"
    },
    {
      "bufferView": 2,
      "byteOffset": 7344,
      "componentType": 5126,
      "count": 580,
      "max": [
        0.6645150184631348,
        0.14161799848079681,
        0.2751609981060028
      ],
      "min": [
        -0.10821600258350372,
        -1.0,
        -0.6788539886474609
      ],
      "type": "VEC3"
    },
    {
      "bufferView": 2,
      "byteOffset": 14304,
      "componentType": 5126,
      "count": 580,
      "max": [
        0.996758222579956,
        0.9676734805107117,
        0.9744287729263306
      ],
      "min": [
        -0.995509147644043,
        -0.9826563596725464,
        -0.9872040152549744
      ],
      "type": "VEC3"
    },
    {
      "bufferView": 3,
      "byteOffset": 4896,
      "componentType": 5126,
      "count": 580,
      "max": [
        0.9975945353507996,
        0.9321533441543579,
        0.9834017157554626,
        1.0
      ],
      "min": [
        -0.9968510866165161,
        -0.9936203956604004,
        -0.9871183037757874,
        1.0
      ],
      "type": "VEC4"
    },
    {
      "bufferView": 1,
      "byteOffset": 2448,
      "componentType": 5126,
      "count": 580,
      "max": [
        0.9846060276031494,
        0.9994999766349792
      ],
      "min": [
        0.0005000000237487257,
        0.0005000000237487257
      ],
      "type": "VEC2"
    },
    {
      "bufferView": 0,
      "byteOffset": 1704,
      "componentType": 5125,
      "count": 798,
      "type": "SCALAR"
    },
    {
      "bufferView": 2,
      "byteOffset": 21264,
      "componentType": 5126,
      "count": 306,
      "max": [
        0.8888520002365112,
        0.5675820112228394,
        0.6509950160980225
      ],
      "min": [
        0.13885800540447235,
        -0.2772589921951294,
        -0.16113799810409546
      ],
      "type": "VEC3"
    },
    {
      "bufferView": 2,
      "byteOffset": 24936,
      "componentType": 5126,
      "count": 306,
      "max": [
        0.9330728650093079,
        0.9882384538650513,
        0.9336404204368591
      ],
      "min": [
        -0.9248961210250854,
        -0.9786783456802368,
        -0.9237321019172668
      ],
      "type": "VEC3"
    },
    {
      "bufferView": 3,
      "byteOffset": 14176,
      "componentType": 5126,
      "count": 306,
      "max": [
        0.9955669045448303,
        0.9807633757591248,
        0.9909958839416504,
        1.0
      ],
      "min": [
        -0.9782876372337341,
        -0.9896675944328308,
        -0.9056981801986694,
        1.0
      ],
      "type": "VEC4"
    },
    {
      "bufferView": 1,
      "byteOffset": 7088,
      "componentType": 5126,
      "count": 306,
      "max": [
        0.9891039729118347,
        0.9994999766349792
      ],
      "min": [
        0.0005000000237487257,
        0.0005000000237487257
      ],
      "type": "VEC2"
    },
    {
      "bufferView": 0,
      "byteOffset": 4896,
      "componentType": 5125,
      "count": 426,
      "type": "SCALAR"
    },
    {
      "bufferView": 2,
      "byteOffset": 28608,
      "componentType": 5126,
      "count": 492,
      "max": [
        0.4949150085449219,
        1.0,
        0.10539499670267105
      ],
      "min": [
        -0.12064699828624725,
        0.06935200095176697,
        -0.3716990053653717
      ],
      "type": "VEC3"
    },
    {
      "bufferView": 2,
      "byteOffset": 34512,
      "componentType": 5126,
      "count": 492,
      "max": [
        0.999872624874115,
        0.996702253818512,
        0.993973970413208
      ],
      "min": [
        -0.9974397420883179,
        -0.9721773862838745,
        -0.998221755027771
      ],
      "type": "VEC3"
    },
    {
      "bufferView": 3,
      "byteOffset": 19072,
      "componentType": 5126,
      "count": 492,
      "max": [
        0.9990441203117371,
        0.9888502359390259,
        0.9930720925331116,
        1.0
      ],
      "min": [
        -0.9541035294532776,
        -0.9971311092376709,
        -0.973190426826477,
        1.0
      ],
      "type": "VEC4"
    },
    {
      "bufferView": 1,
      "byteOffset": 9536,
      "componentType": 5126,
      "count": 492,
      "max": [
        0.995602011680603,
        0.9994999766349792
      ],
      "min": [
        0.0005000000237487257,
        0.0005000000237487257
      ],
      "type": "VEC2"
    },
    {
      "bufferView": 0,
      "byteOffset": 6600,
      "componentType": 5125,
      "count": 696,
      "type": "SCALAR"
    }
  ],
  "asset": {
    "extras": {
      "author": "Tauffiq Abdllah (https://sketchfab.com/Muhammad.Tauffiq.Abdllah)",
      "license": "CC-BY-4.0 (http://creativecommons.org/licenses/by/4.0/)",
      "source": "https://sketchfab.com/3d-models/root-cdde0bd961b94f499e847310073d4961",
      "title": "Root"
    },
    "generator": "Sketchfab-12.68.0",
    "version": "2.0"
  },
  "bufferViews": [
    {
      "buffer": 0,
      "byteLength": 9384,
      "name": "floatBufferViews",
      "target": 34963
    },
    {
      "buffer": 0,
      "byteLength": 13472,
      "byteOffset": 9384,
      "byteStride": 8,
      "name": "floatBufferViews",
      "target": 34962
    },
    {
      "buffer": 0,
      "byteLength": 40416,
      "byteOffset": 22856,
      "byteStride": 12,
      "name": "floatBufferViews",
      "target": 34962
    },
    {
      "buffer": 0,
      "byteLength": 26944,
      "byteOffset": 63272,
      "byteStride": 16,
      "name": "floatBufferViews",
      "target": 34962
    }
  ],
  "buffers": [
    {
      "byteLength": 90216,
      "uri": "scene.bin"
    }
  ],
  "images": [
    {
      "uri": "textures/Akar_baseColor.jpeg"
    },
    {
      "uri": "textures/Akar_metallicRoughness.png"
    },
    {
      "uri": "textures/Akar_normal.png"
    }
  ],
  "materials": [
    {
      "doubleSided": true,
      "name": "Akar",
      "normalTexture": {
        "index": 2
      },
      "occlusionTexture": {
        "index": 1
      },
      "pbrMetallicRoughness": {
        "baseColorTexture": {
          "index": 0
        },
        "metallicRoughnessTexture": {
          "index": 1
        }
      }
    }
  ],
  "meshes": [
    {
      "name": "defaultMaterial",
      "primitives": [
        {
          "attributes": {
            "NORMAL": 1,
            "POSITION": 0,
            "TANGENT": 2,
            "TEXCOORD_0": 3
          },
          "indices": 4,
          "material": 0,
          "mode": 4
        }
      ]
    },
    {
      "name": "defaultMaterial",
      "primitives": [
        {
          "attributes": {
            "NORMAL": 6,
            "POSITION": 5,
            "TANGENT": 7,
            "TEXCOORD_0": 8
          },
          "indices": 9,
          "material": 0,
          "mode": 4
        }
      ]
    },
    {
      "name": "defaultMaterial",
      "primitives": [
        {
          "attributes": {
            "NORMAL": 11,
            "POSITION": 10,
            "TANGENT": 12,
            "TEXCOORD_0": 13
          },
          "indices": 14,
          "material": 0,
          "mode": 4
        }
      ]
    },
    {
      "name": "defaultMaterial",
      "primitives": [
        {
          "attributes": {
            "NORMAL": 16,
            "POSITION": 15,
            "TANGENT": 17,
            "TEXCOORD_0": 18
          },
          "indices": 19,
          "material": 0,
          "mode": 4
        }
      ]
    }
  ],
  "nodes": [
    {
      "children": [
        1
      ],
      "matrix": [
        1.0,
        0.0,
        0.0,
        0.0,
        0.0,
        2.220446049250313e-16,
        -1.0,
        0.0,
        0.0,
        1.0,
        2.220446049250313e-16,
        0.0,
        0.0,
        0.0,
        0.0,
        1.0
      ],
      "name": "Sketchfab_model"
    },
    {
      "children": [
        2,
        4,
        6,
        8
      ],
      "matrix": [
        1.0,
        0.0,
        0.0,
        0.0,
        0.0,
        -4.371139006309477e-08,
        0.999999999999999,
        0.0,
        0.0,
        -0.999999999999999,
        -4.371139006309477e-08,
        0.0,
        0.0,
        0.0,
        0.0,
        1.0
      ],
      "name": "Collada visual scene group"
    },
    {
      "children": [
        3
      ],
      "name": "Object001"
    },
    {
      "mesh": 0,
      "name": "defaultMaterial"
    },
    {
      "children": [
        5
      ],
      "name": "Object003"
    },
    {
      "mesh": 1,
      "name": "defaultMaterial"
    },
    {
      "children": [
        7
      ],
      "name": "Object002"
    },
    {
      "mesh": 2,
      "name": "defaultMaterial"
    },
    {
      "children": [
        9
      ],
      "name": "Line01"
    },
    {
      "mesh": 3,
      "name": "defaultMaterial"
    }
  ],
  "samplers": [
    {
      "magFilter": 9729,
      "minFilter": 9987,
      "wrapS": 10497,
      "wrapT": 10497
    }
  ],
  "scene": 0,
  "scenes": [
    {
      "name": "Sketchfab_Scene",
      "nodes": [
        0
      ]
    }
  ],
  "textures": [
    {
      "sampler": 0,
      "source": 0
    },
    {
      "sampler": 0,
      "source": 1
    },
    {
      "sampler": 0,
      "source": 2
    }
  ]
}
