{
  "accessors": [
    {
      "bufferView": 2,
      "componentType": 5126,
      "count": 60,
      "max": [
        1.0,
        1.0,
        0.9510565996170044
      ],
      "min": [
        -1.0000001192092896,
        -1.0,
        -0.951056718826294
      ],
      "type": "VEC3"
    },
    {
      "bufferView": 2,
      "byteOffset": 720,
      "componentType": 5126,
      "count": 60,
      "max": [
        0.9570660591125488,
        1.0,
        0.9989070892333984
      ],
      "min": [
        -0.9467027187347412,
        -1.0,
        -0.9986882209777832
      ],
      "type": "VEC3"
    },
    {
      "bufferView": 1,
      "componentType": 5126,
      "count": 60,
      "max": [
        0.65625,
        0.9923526048660278
      ],
      "min": [
        0.34375,
        0.007647395133972168
      ],
      "type": "VEC2"
    },
    {
      "bufferView": 0,
      "componentType": 5125,
      "count": 108,
      "type": "SCALAR"
    },
    {
      "bufferView": 2,
      "byteOffset": 1440,
      "componentType": 5126,
      "count": 36,
      "max": [
        0.5,
        0.5,
        0.5
      ],
      "min": [
        -0.5,
        -0.5,
        -0.5
      ],
      "type": "VEC3"
    },
    {
      "bufferView": 2,
      "byteOffset": 1872,
      "componentType": 5126,
      "count": 36,
      "max": [
        1.0,
        0.15382231771945953,
        1.0
      ],
      "min": [
        -1.0,
        -1.0,
        -1.0
      ],
      "type": "VEC3"
    },
    {
      "bufferView": 1,
      "byteOffset": 480,
      "componentType": 5126,
      "count": 36,
      "max": [
        0.875,
        1.0
      ],
      "min": [
        0.125,
        0.0
      ],
      "type": "VEC2"
    },
    {
      "bufferView": 0,
      "byteOffset": 432,
      "componentType": 5125,
      "count": 78,
      "type": "SCALAR"
    },
    {
      "bufferView": 2,
      "byteOffset": 2304,
      "componentType": 5126,
      "count": 28,
      "max": [
        0.5,
        0.5,
        0.5
      ],
      "min": [
        -0.5,
        -0.5,
        -0.5
      ],
      "type": "VEC3"
    },
    {
      "bufferView": 2,
      "byteOffset": 2640,
      "componentType": 5126,
      "count": 28,
      "max": [
        0.9988678693771362,
        0.14926373958587646,
        0.9999956488609314
      ],
      "min": [
        -0.9999955892562866,
        -1.0,
        -0.998640775680542
      ],
      "type": "VEC3"
    },
    {
      "bufferView": 1,
      "byteOffset": 768,
      "componentType": 5126,
      "count": 28,
      "max": [
        0.875,
        1.0
      ],
      "min": [
        0.125,
        0.0
      ],
      "type": "VEC2"
    },
    {
      "bufferView": 0,
      "byteOffset": 744,
      "componentType": 5125,
      "count": 54,
      "type": "SCALAR"
    },
    {
      "bufferView": 2,
      "byteOffset": 2976,
      "componentType": 5126,
      "count": 28,
      "max": [
        0.5,
        0.5,
        0.5
      ],
      "min": [
        -0.5,
        -0.5,
        -0.5572318434715271
      ],
      "type": "VEC3"
    },
    {
      "bufferView": 2,
      "byteOffset": 3312,
      "componentType": 5126,
      "count": 28,
      "max": [
        0.99126797914505,
        0.5647680759429932,
        0.9943520426750183
      ],
      "min": [
        -0.970033586025238,
        -1.0,
        -0.9991266131401062
      ],
      "type": "VEC3"
    },
    {
      "bufferView": 1,
      "byteOffset": 992,
      "componentType": 5126,
      "count": 28,
      "max": [
        0.875,
        1.0
      ],
      "min": [
        0.125,
        0.0
      ],
      "type": "VEC2"
    },
    {
      "bufferView": 0,
      "byteOffset": 960,
      "componentType": 5125,
      "count": 54,
      "type": "SCALAR"
    },
    {
      "bufferView": 2,
      "byteOffset": 3648,
      "componentType": 5126,
      "count": 28,
      "max": [
        0.5,
        0.5,
        0.5
      ],
      "min": [
        -0.5,
        -0.5,
        -0.5
      ],
      "type": "VEC3"
    },
    {
      "bufferView": 2,
      "byteOffset": 3984,
      "componentType": 5126,
      "count": 28,
      "max": [
        0.9942068457603455,
        0.37508562207221985,
        1.0
      ],
      "min": [
        -0.9995452761650085,
        -1.0,
        -0.998984694480896
      ],
      "type": "VEC3"
    },
    {
      "bufferView": 1,
      "byteOffset": 1216,
      "componentType": 5126,
      "count": 28,
      "max": [
        0.875,
        1.0
      ],
      "min": [
        0.125,
        0.0
      ],
      "type": "VEC2"
    },
    {
      "bufferView": 0,
      "byteOffset": 1176,
      "componentType": 5125,
      "count": 54,
      "type": "SCALAR"
    }
  ],
  "asset": {
    "extras": {
      "author": "jjmax30 (https://sketchfab.com/jjmax30)",
      "license": "CC-BY-4.0 (http://creativecommons.org/licenses/by/4.0/)",
      "source": "https://sketchfab.com/3d-models/low-poly-wooden-stool-c157935029774ccfb5a58f634cc58793",
      "title": "Low Poly Wooden Stool"
    },
    "generator": "Sketchfab-12.65.0",
    "version": "2.0"
  },
  "bufferViews": [
    {
      "buffer": 0,
      "byteLength": 1392,
      "name": "floatBufferViews",
      "target": 34963
    },
    {
      "buffer": 0,
      "byteLength": 1440,
      "byteOffset": 1392,
      "byteStride": 8,
      "name": "floatBufferViews",
      "target": 34962
    },
    {
      "buffer": 0,
      "byteLength": 4320,
      "byteOffset": 2832,
      "byteStride": 12,
      "name": "floatBufferViews",
      "target": 34962
    }
  ],
  "buffers": [
    {
      "byteLength": 7152,
      "uri": "scene.bin"
    }
  ],
  "materials": [
    {
      "doubleSided": true,
      "name": "Flat_Wood_1",
      "pbrMetallicRoughness": {
        "baseColorFactor": [
          0.2375,
          0.0718,
          0.0046,
          1.0
        ],
        "metallicFactor": 0.0
      }
    }
  ],
  "meshes": [
    {
      "name": "pCylinder1_Flat_Wood_1_0",
      "primitives": [
        {
          "attributes": {
            "NORMAL": 1,
            "POSITION": 0,
            "TEXCOORD_0": 2
          },
          "indices": 3,
          "material": 0,
          "mode": 4
        }
      ]
    },
    {
      "name": "pCube1_Flat_Wood_1_0",
      "primitives": [
        {
          "attributes": {
            "NORMAL": 5,
            "POSITION": 4,
            "TEXCOORD_0": 6
          },
          "indices": 7,
          "material": 0,
          "mode": 4
        }
      ]
    },
    {
      "name": "pCube2_Flat_Wood_1_0",
      "primitives": [
        {
          "attributes": {
            "NORMAL": 9,
            "POSITION": 8,
            "TEXCOORD_0": 10
          },
          "indices": 11,
          "material": 0,
          "mode": 4
        }
      ]
    },
    {
      "name": "pCube3_Flat_Wood_1_0",
      "primitives": [
        {
          "attributes": {
            "NORMAL": 13,
            "POSITION": 12,
            "TEXCOORD_0": 14
          },
          "indices": 15,
          "material": 0,
          "mode": 4
        }
      ]
    },
    {
      "name": "pCube4_Flat_Wood_1_0",
      "primitives": [
        {
          "attributes": {
            "NORMAL": 17,
            "POSITION": 16,
            "TEXCOORD_0": 18
          },
          "indices": 19,
          "material": 0,
          "mode": 4
        }
      ]
    }
  ],
  "nodes": [
    {
      "children": [
        1
      ],
      "matrix": [
        1.0,
        0.0,
        0.0,
        0.0,
        0.0,
        2.220446049250313e-16,
        -1.0,
        0.0,
        0.0,
        1.0,
        2.220446049250313e-16,
        0.0,
        0.0,
        0.0,
        0.0,
        1.0
      ],
      "name": "Sketchfab_model"
    },
    {
      "children": [
        2
      ],
      "matrix": [
        1.0,
        0.0,
        0.0,
        0.0,
        0.0,
        0.0,
        1.0,
        0.0,
        0.0,
        -1.0,
        0.0,
        0.0,
        0.0,
        0.0,
        0.0,
        1.0
      ],
      "name": "554bbf20a1474905be64fffea9aedc46.fbx"
    },
    {
      "children": [
        3,
        5,
        7,
        9,
        11
      ],
      "name": "RootNode"
    },
    {
      "children": [
        4
      ],
      "matrix": [
        2.8756203651428223,
        0.0,
        0.0,
        0.0,
        0.0,
        0.1354345679283142,
        0.0,
        0.0,
        0.0,
        0.0,
        2.8756203651428223,
        0.0,
        0.0,
        5.156335830688477,
        0.0,
        1.0
      ],
      "name": "pCylinder1"
    },
    {
      "mesh": 0,
      "name": "pCylinder1_Flat_Wood_1_0"
    },
    {
      "children": [
        6
      ],
      "matrix": [
        0.6130872368812561,
        0.0,
        0.0,
        0.0,
        0.0,
        5.13421630859375,
        0.0,
        0.0,
        0.0,
        0.0,
        0.6130872368812561,
        0.0,
        -0.9923945665359497,
        2.4032022953033447,
        -1.222159743309021,
        1.0
      ],
      "name": "pCube1"
    },
    {
      "mesh": 1,
      "name": "pCube1_Flat_Wood_1_0"
    },
    {
      "children": [
        8
      ],
      "matrix": [
        0.609800814205857,
        0.0,
        -0.06339500785209636,
        0.0,
        0.0,
        5.13421630859375,
        0.0,
        0.0,
        0.06339500785209636,
        0.0,
        0.609800814205857,
        0.0,
        -1.406260371208191,
        2.5222551822662354,
        1.368460774421692,
        1.0
      ],
      "name": "pCube2"
    },
    {
      "mesh": 2,
      "name": "pCube2_Flat_Wood_1_0"
    },
    {
      "children": [
        10
      ],
      "matrix": [
        0.6078976198123225,
        0.0,
        -0.07960178297755971,
        0.0,
        0.0,
        5.13421630859375,
        0.0,
        0.0,
        0.07960178297755971,
        0.0,
        0.6078976198123225,
        0.0,
        1.3129898309707642,
        2.5222551822662354,
        1.6016441583633423,
        1.0
      ],
      "name": "pCube3"
    },
    {
      "mesh": 3,
      "name": "pCube3_Flat_Wood_1_0"
    },
    {
      "children": [
        12
      ],
      "matrix": [
        0.6102579391110821,
        0.0,
        0.058832030209642595,
        0.0,
        0.0,
        5.13421630859375,
        0.0,
        0.0,
        -0.058832030209642595,
        0.0,
        0.6102579391110821,
        0.0,
        1.3326951265335083,
        2.5222551822662354,
        -1.314349889755249,
        1.0
      ],
      "name": "pCube4"
    },
    {
      "mesh": 4,
      "name": "pCube4_Flat_Wood_1_0"
    }
  ],
  "scene": 0,
  "scenes": [
    {
      "name": "Sketchfab_Scene",
      "nodes": [
        0
      ]
    }
  ]
}
