{
  "accessors": [
    {
      "bufferView": 2,
      "componentType": 5126,
      "count": 1410,
      "max": [
        0.8500000834465027,
        1.3500005006790161,
        1.9026291370391846
      ],
      "min": [
        -0.8500000834465027,
        -1.3500001430511475,
        0.0
      ],
      "type": "VEC3"
    },
    {
      "bufferView": 2,
      "byteOffset": 16920,
      "componentType": 5126,
      "count": 1410,
      "max": [
        1.0,
        1.0,
        1.0
      ],
      "min": [
        -1.0,
        -1.0,
        -1.0
      ],
      "type": "VEC3"
    },
    {
      "bufferView": 1,
      "componentType": 5126,
      "count": 1410,
      "max": [
        0.995710551738739,
        0.9966031312942505
      ],
      "min": [
        0.0020368043333292007,
        0.0018690330907702446
      ],
      "type": "VEC2"
    },
    {
      "bufferView": 0,
      "componentType": 5125,
      "count": 3336,
      "type": "SCALAR"
    },
    {
      "bufferView": 2,
      "byteOffset": 33840,
      "componentType": 5126,
      "count": 176,
      "max": [
        0.7487499713897705,
        1.2450000047683716,
        0.11999999731779099
      ],
      "min": [
        -0.7487499713897705,
        -1.2450000047683716,
        0.0
      ],
      "type": "VEC3"
    },
    {
      "bufferView": 2,
      "byteOffset": 35952,
      "componentType": 5126,
      "count": 176,
      "max": [
        0.9830070734024048,
        0.9830067753791809,
        0.9901459813117981
      ],
      "min": [
        -0.9830070734024048,
        -0.9830067753791809,
        -0.9901459217071533
      ],
      "type": "VEC3"
    },
    {
      "bufferView": 1,
      "byteOffset": 11280,
      "componentType": 5126,
      "count": 176,
      "max": [
        0.5303824543952942,
        0.9980850219726563
      ],
      "min": [
        0.004766551777720451,
        0.6139564514160156
      ],
      "type": "VEC2"
    },
    {
      "bufferView": 0,
      "byteOffset": 13344,
      "componentType": 5125,
      "count": 756,
      "type": "SCALAR"
    },
    {
      "bufferView": 2,
      "byteOffset": 38064,
      "componentType": 5126,
      "count": 176,
      "max": [
        0.7487499713897705,
        1.2450000047683716,
        0.11999999731779099
      ],
      "min": [
        -0.7487499713897705,
        -1.2450000047683716,
        0.0
      ],
      "type": "VEC3"
    },
    {
      "bufferView": 2,
      "byteOffset": 40176,
      "componentType": 5126,
      "count": 176,
      "max": [
        0.9830070734024048,
        0.9830067753791809,
        0.9901459813117981
      ],
      "min": [
        -0.9830070734024048,
        -0.9830067753791809,
        -0.9901459217071533
      ],
      "type": "VEC3"
    },
    {
      "bufferView": 1,
      "byteOffset": 12688,
      "componentType": 5126,
      "count": 176,
      "max": [
        0.5303824543952942,
        0.9980850219726563
      ],
      "min": [
        0.004766551777720451,
        0.6139564514160156
      ],
      "type": "VEC2"
    },
    {
      "bufferView": 0,
      "byteOffset": 16368,
      "componentType": 5125,
      "count": 756,
      "type": "SCALAR"
    }
  ],
  "asset": {
    "extras": {
      "author": "oxxycodone (https://sketchfab.com/oxxycodone)",
      "license": "CC-BY-4.0 (http://creativecommons.org/licenses/by/4.0/)",
      "source": "https://sketchfab.com/3d-models/bed-5a791e6e5e144bee8baf226fafd40130",
      "title": "Bed"
    },
    "generator": "Sketchfab-16.95.0",
    "version": "2.0"
  },
  "bufferViews": [
    {
      "buffer": 0,
      "byteLength": 19392,
      "name": "floatBufferViews",
      "target": 34963
    },
    {
      "buffer": 0,
      "byteLength": 14096,
      "byteOffset": 19392,
      "byteStride": 8,
      "name": "floatBufferViews",
      "target": 34962
    },
    {
      "buffer": 0,
      "byteLength": 42288,
      "byteOffset": 33488,
      "byteStride": 12,
      "name": "floatBufferViews",
      "target": 34962
    }
  ],
  "buffers": [
    {
      "byteLength": 75776,
      "uri": "scene.bin"
    }
  ],
  "images": [
    {
      "uri": "textures/material_baseColor.png"
    }
  ],
  "materials": [
    {
      "doubleSided": true,
      "name": "material",
      "pbrMetallicRoughness": {
        "baseColorTexture": {
          "index": 0
        },
        "metallicFactor": 0.0,
        "roughnessFactor": 0.8211145618000169
      }
    }
  ],
  "meshes": [
    {
      "name": "bed_bed_0",
      "primitives": [
        {
          "attributes": {
            "NORMAL": 1,
            "POSITION": 0,
            "TEXCOORD_0": 2
          },
          "indices": 3,
          "material": 0,
          "mode": 4
        }
      ]
    },
    {
      "name": "mattress_1_bed_0",
      "primitives": [
        {
          "attributes": {
            "NORMAL": 5,
            "POSITION": 4,
            "TEXCOORD_0": 6
          },
          "indices": 7,
          "material": 0,
          "mode": 4
        }
      ]
    },
    {
      "name": "mattress_2_bed_0",
      "primitives": [
        {
          "attributes": {
            "NORMAL": 9,
            "POSITION": 8,
            "TEXCOORD_0": 10
          },
          "indices": 11,
          "material": 0,
          "mode": 4
        }
      ]
    }
  ],
  "nodes": [
    {
      "children": [
        1
      ],
      "matrix": [
        2.220446049250313e-16,
        -2.220446049250313e-16,
        1.0,
        0.0,
        1.0,
        4.930380657631324e-32,
        -2.220446049250313e-16,
        0.0,
        0.0,
        1.0,
        2.220446049250313e-16,
        0.0,
        0.0,
        0.0,
        0.0,
        1.0
      ],
      "name": "Sketchfab_model"
    },
    {
      "children": [
        2
      ],
      "matrix": [
        0.009999999776482582,
        0.0,
        0.0,
        0.0,
        0.0,
        0.0,
        0.009999999776482582,
        0.0,
        0.0,
        -0.009999999776482582,
        0.0,
        0.0,
        0.0,
        0.0,
        0.0,
        1.0
      ],
      "name": "bed.fbx"
    },
    {
      "children": [
        3
      ],
      "name": "RootNode"
    },
    {
      "children": [
        4,
        6,
        8
      ],
      "matrix": [
        100.0,
        0.0,
        0.0,
        0.0,
        0.0,
        -1.629206793918314e-05,
        -99.99999999999868,
        0.0,
        0.0,
        99.99999999999868,
        -1.629206793918314e-05,
        0.0,
        1.2293457984924316e-05,
        0.0,
        -9.685754776000977e-06,
        1.0
      ],
      "name": "Bed"
    },
    {
      "children": [
        5
      ],
      "matrix": [
        1.0,
        0.0,
        0.0,
        0.0,
        0.0,
        1.0,
        -2.646977960169688e-23,
        0.0,
        0.0,
        2.646977960169688e-23,
        1.0,
        0.0,
        0.0,
        0.0,
        0.0,
        1.0
      ],
      "name": "bed"
    },
    {
      "mesh": 0,
      "name": "bed_bed_0"
    },
    {
      "children": [
        7
      ],
      "matrix": [
        1.0,
        0.0,
        0.0,
        0.0,
        0.0,
        1.0,
        -2.646977960169688e-23,
        0.0,
        0.0,
        2.646977960169688e-23,
        1.0,
        0.0,
        -1.2293457984924316e-07,
        -9.685754776000977e-08,
        0.3200000524520874,
        1.0
      ],
      "name": "mattress_1"
    },
    {
      "mesh": 1,
      "name": "mattress_1_bed_0"
    },
    {
      "children": [
        9
      ],
      "matrix": [
        1.0,
        0.0,
        0.0,
        0.0,
        0.0,
        1.0,
        -2.646977960169688e-23,
        0.0,
        0.0,
        2.646977960169688e-23,
        1.0,
        0.0,
        -1.2293457984924316e-07,
        -9.685754776000977e-08,
        1.3200000524520874,
        1.0
      ],
      "name": "mattress_2"
    },
    {
      "mesh": 2,
      "name": "mattress_2_bed_0"
    }
  ],
  "samplers": [
    {
      "magFilter": 9729,
      "minFilter": 9987,
      "wrapS": 10497,
      "wrapT": 10497
    }
  ],
  "scene": 0,
  "scenes": [
    {
      "name": "Sketchfab_Scene",
      "nodes": [
        0
      ]
    }
  ],
  "textures": [
    {
      "sampler": 0,
      "source": 0
    }
  ]
}
