{
  "accessors": [
    {
      "bufferView": 2,
      "componentType": 5126,
      "count": 40,
      "max": [
        0.8606138229370117,
        3.663710832595825,
        0.818511962890625
      ],
      "min": [
        -0.8606133460998535,
        3.5564215183258057,
        -0.8184814453125
      ],
      "type": "VEC3"
    },
    {
      "bufferView": 2,
      "byteOffset": 480,
      "componentType": 5126,
      "count": 40,
      "max": [
        0.9510583281517029,
        0.0,
        1.0
      ],
      "min": [
        -0.9510583281517029,
        0.0,
        -1.0
      ],
      "type": "VEC3"
    },
    {
      "bufferView": 1,
      "componentType": 5126,
      "count": 40,
      "max": [
        0.6249998807907104,
        0.6884398460388184
      ],
      "min": [
        0.375,
        0.6794789433479309
      ],
      "type": "VEC2"
    },
    {
      "bufferView": 0,
      "componentType": 5125,
      "count": 60,
      "type": "SCALAR"
    },
    {
      "bufferView": 2,
      "byteOffset": 960,
      "componentType": 5126,
      "count": 311,
      "max": [
        1.4970722198486328,
        5.931850433349609,
        1.4238433837890625
      ],
      "min": [
        -1.4970717430114746,
        -1.856705904006958,
        -1.4237594604492188
      ],
      "type": "VEC3"
    },
    {
      "bufferView": 2,
      "byteOffset": 4692,
      "componentType": 5126,
      "count": 311,
      "max": [
        0.9510589241981506,
        0.9857128262519836,
        1.0
      ],
      "min": [
        -0.9510585069656372,
        -1.0,
        -1.0
      ],
      "type": "VEC3"
    },
    {
      "bufferView": 1,
      "byteOffset": 320,
      "componentType": 5126,
      "count": 311,
      "max": [
        0.65625,
        0.9923526048660278
      ],
      "min": [
        0.34375,
        0.007647395133972168
      ],
      "type": "VEC2"
    },
    {
      "bufferView": 0,
      "byteOffset": 240,
      "componentType": 5125,
      "count": 564,
      "type": "SCALAR"
    },
    {
      "bufferView": 2,
      "byteOffset": 8424,
      "componentType": 5126,
      "count": 11,
      "max": [
        1.4153594970703125,
        5.815478324890137,
        1.3461151123046875
      ],
      "min": [
        -1.415358066558838,
        5.815478324890137,
        -1.3460617065429688
      ],
      "type": "VEC3"
    },
    {
      "bufferView": 2,
      "byteOffset": 8556,
      "componentType": 5126,
      "count": 11,
      "max": [
        0.0,
        1.0,
        4.049798008054495e-07
      ],
      "min": [
        0.0,
        1.0,
        -6.074514544707199e-07
      ],
      "type": "VEC3"
    },
    {
      "bufferView": 1,
      "byteOffset": 2808,
      "componentType": 5126,
      "count": 11,
      "max": [
        0.65625,
        0.9923526048660278
      ],
      "min": [
        0.34375,
        0.6951473951339722
      ],
      "type": "VEC2"
    },
    {
      "bufferView": 0,
      "byteOffset": 2496,
      "componentType": 5125,
      "count": 30,
      "type": "SCALAR"
    },
    {
      "bufferView": 2,
      "byteOffset": 8688,
      "componentType": 5126,
      "count": 4,
      "max": [
        -0.3811982572078705,
        2.8037869930267334,
        -0.6481028199195862
      ],
      "min": [
        -0.7612265944480896,
        1.9195340871810913,
        -0.9242334365844727
      ],
      "type": "VEC3"
    },
    {
      "bufferView": 2,
      "byteOffset": 8736,
      "componentType": 5126,
      "count": 4,
      "max": [
        -0.5878185629844666,
        0.0,
        -0.808992862701416
      ],
      "min": [
        -0.5878185629844666,
        0.0,
        -0.808992862701416
      ],
      "type": "VEC3"
    },
    {
      "bufferView": 1,
      "byteOffset": 2896,
      "componentType": 5126,
      "count": 4,
      "max": [
        0.45000001788139343,
        0.5851202011108398
      ],
      "min": [
        0.42500001192092896,
        0.513949990272522
      ],
      "type": "VEC2"
    },
    {
      "bufferView": 0,
      "byteOffset": 2616,
      "componentType": 5125,
      "count": 6,
      "type": "SCALAR"
    },
    {
      "bufferView": 2,
      "byteOffset": 8784,
      "componentType": 5126,
      "count": 32,
      "max": [
        -0.2659440040588379,
        2.8622817993164063,
        -0.505828857421875
      ],
      "min": [
        -0.7432417869567871,
        1.8610392808914185,
        -0.8831558227539063
      ],
      "type": "VEC3"
    },
    {
      "bufferView": 2,
      "byteOffset": 9168,
      "componentType": 5126,
      "count": 32,
      "max": [
        0.8090011477470398,
        1.0,
        0.5878521800041199
      ],
      "min": [
        -0.8089684247970581,
        -1.0,
        -0.8091339468955994
      ],
      "type": "VEC3"
    },
    {
      "bufferView": 1,
      "byteOffset": 2928,
      "componentType": 5126,
      "count": 32,
      "max": [
        0.45000001788139343,
        0.5851202011108398
      ],
      "min": [
        0.42500001192092896,
        0.513949990272522
      ],
      "type": "VEC2"
    },
    {
      "bufferView": 0,
      "byteOffset": 2640,
      "componentType": 5125,
      "count": 48,
      "type": "SCALAR"
    },
    {
      "bufferView": 2,
      "byteOffset": 9552,
      "componentType": 5126,
      "count": 16,
      "max": [
        -0.3380742073059082,
        2.8037869930267334,
        -0.5887527465820313
      ],
      "min": [
        -0.7612265944480896,
        1.9195340871810913,
        -0.9242334365844727
      ],
      "type": "VEC3"
    },
    {
      "bufferView": 2,
      "byteOffset": 9744,
      "componentType": 5126,
      "count": 16,
      "max": [
        0.8089926242828369,
        1.0,
        0.5878191590309143
      ],
      "min": [
        -0.8089924454689026,
        -1.0,
        -0.5878188610076904
      ],
      "type": "VEC3"
    },
    {
      "bufferView": 1,
      "byteOffset": 3184,
      "componentType": 5126,
      "count": 16,
      "max": [
        0.45000001788139343,
        0.5851202011108398
      ],
      "min": [
        0.42500001192092896,
        0.513949990272522
      ],
      "type": "VEC2"
    },
    {
      "bufferView": 0,
      "byteOffset": 2832,
      "componentType": 5125,
      "count": 24,
      "type": "SCALAR"
    }
  ],
  "asset": {
    "extras": {
      "author": "Kasugamon (https://sketchfab.com/Kasugamon)",
      "license": "CC-BY-4.0 (http://creativecommons.org/licenses/by/4.0/)",
      "source": "https://sketchfab.com/3d-models/flashlight-495d3c2c055f4902b6012c9a32fb575b",
      "title": "Flashlight"
    },
    "generator": "Sketchfab-17.1.0",
    "version": "2.0"
  },
  "bufferViews": [
    {
      "buffer": 0,
      "byteLength": 2928,
      "name": "floatBufferViews",
      "target": 34963
    },
    {
      "buffer": 0,
      "byteLength": 3312,
      "byteOffset": 2928,
      "byteStride": 8,
      "name": "floatBufferViews",
      "target": 34962
    },
    {
      "buffer": 0,
      "byteLength": 9936,
      "byteOffset": 6240,
      "byteStride": 12,
      "name": "floatBufferViews",
      "target": 34962
    }
  ],
  "buffers": [
    {
      "byteLength": 16176,
      "uri": "scene.bin"
    }
  ],
  "extensionsUsed": [
    "KHR_materials_unlit"
  ],
  "materials": [
    {
      "doubleSided": true,
      "extensions": {
        "KHR_materials_unlit": {}
      },
      "name": "lambert9",
      "pbrMetallicRoughness": {
        "baseColorFactor": [
          0.0834,
          0.1106,
          0.214,
          1.0
        ],
        "metallicFactor": 0.0
      }
    },
    {
      "doubleSided": true,
      "extensions": {
        "KHR_materials_unlit": {}
      },
      "name": "lambert7",
      "pbrMetallicRoughness": {
        "baseColorFactor": [
          0.1334,
          0.1802,
          0.3581,
          1.0
        ],
        "metallicFactor": 0.0
      }
    },
    {
      "doubleSided": true,
      "extensions": {
        "KHR_materials_unlit": {}
      },
      "name": "lambert8",
      "pbrMetallicRoughness": {
        "baseColorFactor": [
          0.9626,
          1.0,
          0.3529,
          1.0
        ],
        "metallicFactor": 0.0
      }
    },
    {
      "doubleSided": true,
      "extensions": {
        "KHR_materials_unlit": {}
      },
      "name": "lambert12",
      "pbrMetallicRoughness": {
        "baseColorFactor": [
          0.0965,
          0.0965,
          0.0965,
          1.0
        ],
        "metallicFactor": 0.0
      }
    },
    {
      "doubleSided": true,
      "extensions": {
        "KHR_materials_unlit": {}
      },
      "name": "lambert10",
      "pbrMetallicRoughness": {
        "baseColorFactor": [
          0.4709,
          0.4709,
          0.4709,
          1.0
        ],
        "metallicFactor": 0.0
      }
    },
    {
      "doubleSided": true,
      "extensions": {
        "KHR_materials_unlit": {}
      },
      "name": "lambert11",
      "pbrMetallicRoughness": {
        "baseColorFactor": [
          0.0772,
          0.0772,
          0.0772,
          1.0
        ],
        "metallicFactor": 0.0
      }
    }
  ],
  "meshes": [
    {
      "name": "pCylinder29_lambert9_0",
      "primitives": [
        {
          "attributes": {
            "NORMAL": 1,
            "POSITION": 0,
            "TEXCOORD_0": 2
          },
          "indices": 3,
          "material": 0,
          "mode": 4
        }
      ]
    },
    {
      "name": "pCylinder29_lambert7_0",
      "primitives": [
        {
          "attributes": {
            "NORMAL": 5,
            "POSITION": 4,
            "TEXCOORD_0": 6
          },
          "indices": 7,
          "material": 1,
          "mode": 4
        }
      ]
    },
    {
      "name": "pCylinder29_lambert8_0",
      "primitives": [
        {
          "attributes": {
            "NORMAL": 9,
            "POSITION": 8,
            "TEXCOORD_0": 10
          },
          "indices": 11,
          "material": 2,
          "mode": 4
        }
      ]
    },
    {
      "name": "pCylinder29_lambert12_0",
      "primitives": [
        {
          "attributes": {
            "NORMAL": 13,
            "POSITION": 12,
            "TEXCOORD_0": 14
          },
          "indices": 15,
          "material": 3,
          "mode": 4
        }
      ]
    },
    {
      "name": "pCylinder29_lambert10_0",
      "primitives": [
        {
          "attributes": {
            "NORMAL": 17,
            "POSITION": 16,
            "TEXCOORD_0": 18
          },
          "indices": 19,
          "material": 4,
          "mode": 4
        }
      ]
    },
    {
      "name": "pCylinder29_lambert11_0",
      "primitives": [
        {
          "attributes": {
            "NORMAL": 21,
            "POSITION": 20,
            "TEXCOORD_0": 22
          },
          "indices": 23,
          "material": 5,
          "mode": 4
        }
      ]
    }
  ],
  "nodes": [
    {
      "children": [
        1
      ],
      "matrix": [
        1.0,
        0.0,
        0.0,
        0.0,
        0.0,
        2.220446049250313e-16,
        -1.0,
        0.0,
        0.0,
        1.0,
        2.220446049250313e-16,
        0.0,
        0.0,
        0.0,
        0.0,
        1.0
      ],
      "name": "Sketchfab_model"
    },
    {
      "children": [
        2
      ],
      "matrix": [
        0.009999999776482582,
        0.0,
        0.0,
        0.0,
        0.0,
        0.0,
        0.009999999776482582,
        0.0,
        0.0,
        -0.009999999776482582,
        0.0,
        0.0,
        0.0,
        0.0,
        0.0,
        1.0
      ],
      "name": "7b75855790b5432199d8c9ae1e1ed48b.fbx"
    },
    {
      "children": [
        3
      ],
      "name": "RootNode"
    },
    {
      "children": [
        4,
        5,
        6,
        7,
        8,
        9
      ],
      "matrix": [
        0.6195074319839478,
        0.0,
        0.0,
        0.0,
        0.0,
        0.6195074319839478,
        0.0,
        0.0,
        0.0,
        0.0,
        0.6195074319839478,
        0.0,
        4.277863502502441,
        0.0,
        47.4525260925293,
        1.0
      ],
      "name": "pCylinder29"
    },
    {
      "mesh": 0,
      "name": "pCylinder29_lambert9_0"
    },
    {
      "mesh": 1,
      "name": "pCylinder29_lambert7_0"
    },
    {
      "mesh": 2,
      "name": "pCylinder29_lambert8_0"
    },
    {
      "mesh": 3,
      "name": "pCylinder29_lambert12_0"
    },
    {
      "mesh": 4,
      "name": "pCylinder29_lambert10_0"
    },
    {
      "mesh": 5,
      "name": "pCylinder29_lambert11_0"
    }
  ],
  "scene": 0,
  "scenes": [
    {
      "name": "Sketchfab_Scene",
      "nodes": [
        0
      ]
    }
  ]
}
