{
  "accessors": [
    {
      "bufferView": 2,
      "componentType": 5126,
      "count": 272,
      "max": [
        0.10000000149011612,
        0.5000001192092896,
        0.10000000149011612
      ],
      "min": [
        -0.10000000149011612,
        0.26250025629997253,
        -0.10000000149011612
      ],
      "type": "VEC3"
    },
    {
      "bufferView": 2,
      "byteOffset": 3264,
      "componentType": 5126,
      "count": 272,
      "max": [
        1.0,
        1.0,
        1.0
      ],
      "min": [
        -1.0,
        -1.0,
        -1.0
      ],
      "type": "VEC3"
    },
    {
      "bufferView": 1,
      "componentType": 5126,
      "count": 272,
      "max": [
        0.7676487565040588,
        0.725673496723175
      ],
      "min": [
        0.5567122101783752,
        0.020061681047081947
      ],
      "type": "VEC2"
    },
    {
      "bufferView": 0,
      "componentType": 5125,
      "count": 756,
      "type": "SCALAR"
    },
    {
      "bufferView": 2,
      "byteOffset": 6528,
      "componentType": 5126,
      "count": 3176,
      "max": [
        0.36076289415359497,
        0.015064556151628494,
        0.03159864619374275
      ],
      "min": [
        -0.3192421793937683,
        -0.022733543068170547,
        -0.006199430674314499
      ],
      "type": "VEC3"
    },
    {
      "bufferView": 2,
      "byteOffset": 44640,
      "componentType": 5126,
      "count": 3176,
      "max": [
        0.9836432933807373,
        0.9977762699127197,
        0.9977762699127197
      ],
      "min": [
        -0.9836434125900269,
        -0.9977763891220093,
        -0.9999913573265076
      ],
      "type": "VEC3"
    },
    {
      "bufferView": 1,
      "byteOffset": 2176,
      "componentType": 5126,
      "count": 3176,
      "max": [
        0.9603124260902405,
        0.9799383878707886
      ],
      "min": [
        0.02006170153617859,
        0.020061638206243515
      ],
      "type": "VEC2"
    },
    {
      "bufferView": 0,
      "byteOffset": 3024,
      "componentType": 5125,
      "count": 8448,
      "type": "SCALAR"
    },
    {
      "bufferView": 2,
      "byteOffset": 82752,
      "componentType": 5126,
      "count": 891,
      "max": [
        0.460909903049469,
        0.30000001192092896,
        0.46090930700302124
      ],
      "min": [
        -0.46090930700302124,
        0.0012298524379730225,
        -0.460909903049469
      ],
      "type": "VEC3"
    },
    {
      "bufferView": 2,
      "byteOffset": 93444,
      "componentType": 5126,
      "count": 891,
      "max": [
        1.0,
        1.0,
        1.0
      ],
      "min": [
        -1.0,
        -0.9904472231864929,
        -1.0
      ],
      "type": "VEC3"
    },
    {
      "bufferView": 1,
      "byteOffset": 27584,
      "componentType": 5126,
      "count": 891,
      "max": [
        0.7668119668960571,
        0.7390204668045044
      ],
      "min": [
        0.020061692222952843,
        0.020061690360307693
      ],
      "type": "VEC2"
    },
    {
      "bufferView": 0,
      "byteOffset": 36816,
      "componentType": 5125,
      "count": 3150,
      "type": "SCALAR"
    },
    {
      "bufferView": 2,
      "byteOffset": 104136,
      "componentType": 5126,
      "count": 128,
      "max": [
        0.4543869197368622,
        0.19999995827674866,
        0.45438632369041443
      ],
      "min": [
        -0.45438632369041443,
        0.0016278624534606934,
        -0.4543869197368622
      ],
      "type": "VEC3"
    },
    {
      "bufferView": 2,
      "byteOffset": 105672,
      "componentType": 5126,
      "count": 128,
      "max": [
        0.46335792541503906,
        -0.8861711621284485,
        0.4633573293685913
      ],
      "min": [
        -0.4633573293685913,
        -1.0,
        -0.46335792541503906
      ],
      "type": "VEC3"
    },
    {
      "bufferView": 1,
      "byteOffset": 34712,
      "componentType": 5126,
      "count": 128,
      "max": [
        0.5156798362731934,
        0.24797184765338898
      ],
      "min": [
        0.27962490916252136,
        0.020927507430315018
      ],
      "type": "VEC2"
    },
    {
      "bufferView": 0,
      "byteOffset": 49416,
      "componentType": 5125,
      "count": 384,
      "type": "SCALAR"
    },
    {
      "bufferView": 2,
      "byteOffset": 107208,
      "componentType": 5126,
      "count": 474,
      "max": [
        0.08658555150032043,
        0.08279766887426376,
        0.5105499029159546
      ],
      "min": [
        -0.08692750334739685,
        -0.08236842602491379,
        -0.005056321620941162
      ],
      "type": "VEC3"
    },
    {
      "bufferView": 2,
      "byteOffset": 112896,
      "componentType": 5126,
      "count": 474,
      "max": [
        0.9934322237968445,
        0.9995948672294617,
        0.9921361804008484
      ],
      "min": [
        -0.9941778182983398,
        -0.9995951652526855,
        -0.9970966577529907
      ],
      "type": "VEC3"
    },
    {
      "bufferView": 1,
      "byteOffset": 35736,
      "componentType": 5126,
      "count": 474,
      "max": [
        0.7681570649147034,
        0.7267075777053833
      ],
      "min": [
        0.02006169967353344,
        0.020061682909727097
      ],
      "type": "VEC2"
    },
    {
      "bufferView": 0,
      "byteOffset": 50952,
      "componentType": 5125,
      "count": 1644,
      "type": "SCALAR"
    },
    {
      "bufferView": 2,
      "byteOffset": 118584,
      "componentType": 5126,
      "count": 203,
      "max": [
        0.12853461503982544,
        0.12862466275691986,
        0.7015659809112549
      ],
      "min": [
        -0.12714353203773499,
        -0.12705449759960175,
        0.5068249106407166
      ],
      "type": "VEC3"
    },
    {
      "bufferView": 2,
      "byteOffset": 121020,
      "componentType": 5126,
      "count": 203,
      "max": [
        1.0,
        1.0,
        0.9943404197692871
      ],
      "min": [
        -1.0,
        -1.0,
        -1.0
      ],
      "type": "VEC3"
    },
    {
      "bufferView": 1,
      "byteOffset": 39528,
      "componentType": 5126,
      "count": 203,
      "max": [
        0.709908127784729,
        0.5960869789123535
      ],
      "min": [
        0.45550093054771423,
        0.02006162703037262
      ],
      "type": "VEC2"
    },
    {
      "bufferView": 0,
      "byteOffset": 57528,
      "componentType": 5125,
      "count": 768,
      "type": "SCALAR"
    }
  ],
  "asset": {
    "extras": {
      "author": "GeniusPilot2016 (https://sketchfab.com/GeniusPilot2016)",
      "license": "CC-BY-4.0 (http://creativecommons.org/licenses/by/4.0/)",
      "source": "https://sketchfab.com/3d-models/rise-and-fall-ceiling-light-f5c7a73b8282466189da50b11a5a0089",
      "title": "Rise and Fall Ceiling Light"
    },
    "generator": "Sketchfab-15.36.0",
    "version": "2.0"
  },
  "bufferViews": [
    {
      "buffer": 0,
      "byteLength": 60600,
      "name": "floatBufferViews",
      "target": 34963
    },
    {
      "buffer": 0,
      "byteLength": 41152,
      "byteOffset": 60600,
      "byteStride": 8,
      "name": "floatBufferViews",
      "target": 34962
    },
    {
      "buffer": 0,
      "byteLength": 123456,
      "byteOffset": 101752,
      "byteStride": 12,
      "name": "floatBufferViews",
      "target": 34962
    }
  ],
  "buffers": [
    {
      "byteLength": 225208,
      "uri": "scene.bin"
    }
  ],
  "materials": [
    {
      "doubleSided": true,
      "name": "black_paint",
      "pbrMetallicRoughness": {
        "baseColorFactor": [
          0.0,
          0.0,
          0.0,
          1.0
        ],
        "metallicFactor": 0.0,
        "roughnessFactor": 0.35
      }
    },
    {
      "doubleSided": true,
      "name": "white_paint",
      "pbrMetallicRoughness": {
        "baseColorFactor": [
          0.8,
          0.8,
          0.8,
          1.0
        ],
        "metallicFactor": 0.0,
        "roughnessFactor": 0.1
      }
    },
    {
      "doubleSided": true,
      "emissiveFactor": [
        1.0,
        1.0,
        1.0
      ],
      "name": "tube",
      "pbrMetallicRoughness": {
        "metallicFactor": 0.0,
        "roughnessFactor": 0.0
      }
    },
    {
      "doubleSided": true,
      "name": "compact_fluorescent_body",
      "pbrMetallicRoughness": {
        "baseColorFactor": [
          0.5,
          0.5,
          0.5,
          1.0
        ],
        "metallicFactor": 0.0,
        "roughnessFactor": 0.5
      }
    }
  ],
  "meshes": [
    {
      "name": "Object_0",
      "primitives": [
        {
          "attributes": {
            "NORMAL": 1,
            "POSITION": 0,
            "TEXCOORD_0": 2
          },
          "indices": 3,
          "material": 0,
          "mode": 4
        }
      ]
    },
    {
      "name": "Object_1",
      "primitives": [
        {
          "attributes": {
            "NORMAL": 5,
            "POSITION": 4,
            "TEXCOORD_0": 6
          },
          "indices": 7,
          "material": 0,
          "mode": 4
        }
      ]
    },
    {
      "name": "Object_2",
      "primitives": [
        {
          "attributes": {
            "NORMAL": 9,
            "POSITION": 8,
            "TEXCOORD_0": 10
          },
          "indices": 11,
          "material": 0,
          "mode": 4
        }
      ]
    },
    {
      "name": "Object_3",
      "primitives": [
        {
          "attributes": {
            "NORMAL": 13,
            "POSITION": 12,
            "TEXCOORD_0": 14
          },
          "indices": 15,
          "material": 1,
          "mode": 4
        }
      ]
    },
    {
      "name": "Object_4",
      "primitives": [
        {
          "attributes": {
            "NORMAL": 17,
            "POSITION": 16,
            "TEXCOORD_0": 18
          },
          "indices": 19,
          "material": 2,
          "mode": 4
        }
      ]
    },
    {
      "name": "Object_5",
      "primitives": [
        {
          "attributes": {
            "NORMAL": 21,
            "POSITION": 20,
            "TEXCOORD_0": 22
          },
          "indices": 23,
          "material": 3,
          "mode": 4
        }
      ]
    }
  ],
  "nodes": [
    {
      "children": [
        1
      ],
      "matrix": [
        1.0,
        0.0,
        0.0,
        0.0,
        0.0,
        2.220446049250313e-16,
        -1.0,
        0.0,
        0.0,
        1.0,
        2.220446049250313e-16,
        0.0,
        0.0,
        0.0,
        0.0,
        1.0
      ],
      "name": "Sketchfab_model"
    },
    {
      "children": [
        2
      ],
      "name": "root"
    },
    {
      "children": [
        3,
        5,
        7,
        10,
        12
      ],
      "matrix": [
        1.0,
        0.0,
        0.0,
        0.0,
        0.0,
        2.220446049250313e-16,
        1.0,
        0.0,
        0.0,
        -1.0,
        2.220446049250313e-16,
        0.0,
        0.0,
        0.0,
        0.0,
        1.0
      ],
      "name": "GLTF_SceneRootNode"
    },
    {
      "children": [
        4
      ],
      "matrix": [
        0.800000011920929,
        0.0,
        0.0,
        0.0,
        0.0,
        0.800000011920929,
        0.0,
        0.0,
        0.0,
        0.0,
        0.800000011920929,
        0.0,
        0.5,
        0.5998107194900513,
        0.5,
        1.0
      ],
      "name": "Cylinder_2"
    },
    {
      "mesh": 0,
      "name": "Object_4"
    },
    {
      "children": [
        6
      ],
      "matrix": [
        7.209510669992307e-08,
        0.8552846908569306,
        0.0,
        0.0,
        -0.8552846908569306,
        7.209510669992307e-08,
        0.0,
        0.0,
        0.0,
        0.0,
        0.8552846908569336,
        0.0,
        0.4967203736305237,
        0.5217314958572388,
        0.48913824558258057,
        1.0
      ],
      "name": "Plane_3"
    },
    {
      "mesh": 1,
      "name": "Object_6"
    },
    {
      "children": [
        8,
        9
      ],
      "matrix": [
        1.0,
        0.0,
        0.0,
        0.0,
        0.0,
        1.0,
        0.0,
        0.0,
        0.0,
        0.0,
        1.0,
        0.0,
        0.5,
        0.04999998211860657,
        0.5,
        1.0
      ],
      "name": "Circle_4"
    },
    {
      "mesh": 2,
      "name": "Object_8"
    },
    {
      "mesh": 3,
      "name": "Object_9"
    },
    {
      "children": [
        11
      ],
      "matrix": [
        -0.4200000166892981,
        3.1709121235831805e-08,
        -3.170911856295292e-08,
        0.0,
        -3.1709121235831805e-08,
        -3.5403352057911427e-08,
        0.4200000166892978,
        0.0,
        3.170911856295292e-08,
        0.4200000166892978,
        3.540335448263861e-08,
        0.0,
        0.5,
        -0.10361036658287048,
        0.49808305501937866,
        1.0
      ],
      "name": "BezierCurve_5"
    },
    {
      "mesh": 4,
      "name": "Object_11"
    },
    {
      "children": [
        13
      ],
      "matrix": [
        -0.4200000166892981,
        3.1709121235831805e-08,
        -3.170911856295292e-08,
        0.0,
        -3.1709121235831805e-08,
        -3.5403352057911427e-08,
        0.4200000166892978,
        0.0,
        3.170911856295292e-08,
        0.4200000166892978,
        3.540335448263861e-08,
        0.0,
        0.5,
        -0.10361036658287048,
        0.49808305501937866,
        1.0
      ],
      "name": "Cylinder.002_6"
    },
    {
      "mesh": 5,
      "name": "Object_13"
    }
  ],
  "scene": 0,
  "scenes": [
    {
      "name": "Sketchfab_Scene",
      "nodes": [
        0
      ]
    }
  ]
}
